<svg viewBox="0 0 330 200" xmlns="http://www.w3.org/2000/svg"><g><g><g><g><g><line x1="41.171875" y1="163.38900902862702" x2="36.171875" y2="163.38900902862702" style="visibility: inherit;" fill="rgb(0, 0, 0)" stroke="rgb(204, 204, 204)" stroke-width="1px"></line><line x1="41.171875" y1="149.51819905826983" x2="36.171875" y2="149.51819905826983" style="visibility: inherit;" fill="rgb(0, 0, 0)" stroke="rgb(204, 204, 204)" stroke-width="1px"></line><line x1="41.171875" y1="135.6473890879127" x2="36.171875" y2="135.6473890879127" style="visibility: inherit;" fill="rgb(0, 0, 0)" stroke="rgb(204, 204, 204)" stroke-width="1px"></line><line x1="41.171875" y1="121.77657911755554" x2="36.171875" y2="121.77657911755554" style="visibility: inherit;" fill="rgb(0, 0, 0)" stroke="rgb(204, 204, 204)" stroke-width="1px"></line><line x1="41.171875" y1="107.90576914719836" x2="36.171875" y2="107.90576914719836" style="visibility: inherit;" fill="rgb(0, 0, 0)" stroke="rgb(204, 204, 204)" stroke-width="1px"></line><line x1="41.171875" y1="94.03495917684118" x2="36.171875" y2="94.03495917684118" style="visibility: inherit;" fill="rgb(0, 0, 0)" stroke="rgb(204, 204, 204)" stroke-width="1px"></line><line x1="41.171875" y1="80.164149206484" x2="36.171875" y2="80.164149206484" style="visibility: inherit;" fill="rgb(0, 0, 0)" stroke="rgb(204, 204, 204)" stroke-width="1px"></line><line x1="41.171875" y1="66.29333923612687" x2="36.171875" y2="66.29333923612687" style="visibility: inherit;" fill="rgb(0, 0, 0)" stroke="rgb(204, 204, 204)" stroke-width="1px"></line><line x1="41.171875" y1="52.4225292657697" x2="36.171875" y2="52.4225292657697" style="visibility: inherit;" fill="rgb(0, 0, 0)" stroke="rgb(204, 204, 204)" stroke-width="1px"></line><line x1="41.171875" y1="38.55171929541251" x2="36.171875" y2="38.55171929541251" style="visibility: inherit;" fill="rgb(0, 0, 0)" stroke="rgb(204, 204, 204)" stroke-width="1px"></line><line x1="41.171875" y1="24.680909325055325" x2="36.171875" y2="24.680909325055325" style="visibility: inherit;" fill="rgb(0, 0, 0)" stroke="rgb(204, 204, 204)" stroke-width="1px"></line><line x1="41.171875" y1="10.810099354698155" x2="36.171875" y2="10.810099354698155" style="visibility: inherit;" fill="rgb(0, 0, 0)" stroke="rgb(204, 204, 204)" stroke-width="1px"></line></g><g transform="translate(31.171875, 0)"><text x="0" y="163.38900902862702" dx="0em" dy="0.3em" style="text-anchor: end; visibility: inherit; font-family: Roboto, sans-serif; font-size: 12px; font-weight: 200;" fill="rgb(33, 33, 33)" stroke="none" stroke-width="1px">4.2</text><text x="0" y="149.51819905826983" dx="0em" dy="0.3em" style="text-anchor: end; visibility: hidden; font-family: Roboto, sans-serif; font-size: 12px; font-weight: 200;" fill="rgb(33, 33, 33)" stroke="none" stroke-width="1px">4.4</text><text x="0" y="135.6473890879127" dx="0em" dy="0.3em" style="text-anchor: end; visibility: inherit; font-family: Roboto, sans-serif; font-size: 12px; font-weight: 200;" fill="rgb(33, 33, 33)" stroke="none" stroke-width="1px">4.6</text><text x="0" y="121.77657911755554" dx="0em" dy="0.3em" style="text-anchor: end; visibility: hidden; font-family: Roboto, sans-serif; font-size: 12px; font-weight: 200;" fill="rgb(33, 33, 33)" stroke="none" stroke-width="1px">4.8</text><text x="0" y="107.90576914719836" dx="0em" dy="0.3em" style="text-anchor: end; visibility: inherit; font-family: Roboto, sans-serif; font-size: 12px; font-weight: 200;" fill="rgb(33, 33, 33)" stroke="none" stroke-width="1px">5</text><text x="0" y="94.03495917684118" dx="0em" dy="0.3em" style="text-anchor: end; visibility: hidden; font-family: Roboto, sans-serif; font-size: 12px; font-weight: 200;" fill="rgb(33, 33, 33)" stroke="none" stroke-width="1px">5.2</text><text x="0" y="80.164149206484" dx="0em" dy="0.3em" style="text-anchor: end; visibility: inherit; font-family: Roboto, sans-serif; font-size: 12px; font-weight: 200;" fill="rgb(33, 33, 33)" stroke="none" stroke-width="1px">5.4</text><text x="0" y="66.29333923612687" dx="0em" dy="0.3em" style="text-anchor: end; visibility: hidden; font-family: Roboto, sans-serif; font-size: 12px; font-weight: 200;" fill="rgb(33, 33, 33)" stroke="none" stroke-width="1px">5.6</text><text x="0" y="52.4225292657697" dx="0em" dy="0.3em" style="text-anchor: end; visibility: inherit; font-family: Roboto, sans-serif; font-size: 12px; font-weight: 200;" fill="rgb(33, 33, 33)" stroke="none" stroke-width="1px">5.8</text><text x="0" y="38.55171929541251" dx="0em" dy="0.3em" style="text-anchor: end; visibility: hidden; font-family: Roboto, sans-serif; font-size: 12px; font-weight: 200;" fill="rgb(33, 33, 33)" stroke="none" stroke-width="1px">6</text><text x="0" y="24.680909325055325" dx="0em" dy="0.3em" style="text-anchor: end; visibility: inherit; font-family: Roboto, sans-serif; font-size: 12px; font-weight: 200;" fill="rgb(33, 33, 33)" stroke="none" stroke-width="1px">6.2</text><text x="0" y="10.810099354698155" dx="0em" dy="0.3em" style="text-anchor: end; visibility: hidden; font-family: Roboto, sans-serif; font-size: 12px; font-weight: 200;" fill="rgb(33, 33, 33)" stroke="none" stroke-width="1px">6.4</text></g><line x1="41.171875" y1="0" x2="41.171875" y2="177" fill="rgb(0, 0, 0)" stroke="rgb(204, 204, 204)" stroke-width="1px"></line></g></g><g transform="translate(41, 0)" clip-path="url(#clip_0)"><clipPath id="clip_0"><rect width="288" height="177"></rect></clipPath><g><g><g><line x1="0.026778908068230602" y1="0" x2="0.026778908068230602" y2="177" fill="rgb(0, 0, 0)" stroke="rgb(66, 66, 66)" stroke-width="1px" opacity="0.25"></line><line x1="34.99993624771086" y1="0" x2="34.99993624771086" y2="177" fill="rgb(0, 0, 0)" stroke="rgb(66, 66, 66)" stroke-width="1px" opacity="0.25"></line><line x1="69.97309358735349" y1="0" x2="69.97309358735349" y2="177" fill="rgb(0, 0, 0)" stroke="rgb(66, 66, 66)" stroke-width="1px" opacity="0.25"></line><line x1="104.94625092699613" y1="0" x2="104.94625092699613" y2="177" fill="rgb(0, 0, 0)" stroke="rgb(66, 66, 66)" stroke-width="1px" opacity="0.25"></line><line x1="139.91940826663875" y1="0" x2="139.91940826663875" y2="177" fill="rgb(0, 0, 0)" stroke="rgb(66, 66, 66)" stroke-width="1px" opacity="0.25"></line><line x1="174.89256560628138" y1="0" x2="174.89256560628138" y2="177" fill="rgb(0, 0, 0)" stroke="rgb(66, 66, 66)" stroke-width="1px" opacity="0.25"></line><line x1="209.865722945924" y1="0" x2="209.865722945924" y2="177" fill="rgb(0, 0, 0)" stroke="rgb(66, 66, 66)" stroke-width="1px" opacity="0.25"></line><line x1="244.83888028556666" y1="0" x2="244.83888028556666" y2="177" fill="rgb(0, 0, 0)" stroke="rgb(66, 66, 66)" stroke-width="1px" opacity="0.25"></line><line x1="279.8120376252093" y1="0" x2="279.8120376252093" y2="177" fill="rgb(0, 0, 0)" stroke="rgb(66, 66, 66)" stroke-width="1px" opacity="0.25"></line></g><g><line x1="0" y1="163.38900902862702" x2="288.828125" y2="163.38900902862702" fill="rgb(0, 0, 0)" stroke="rgb(66, 66, 66)" stroke-width="1px" opacity="0.25"></line><line x1="0" y1="149.51819905826983" x2="288.828125" y2="149.51819905826983" fill="rgb(0, 0, 0)" stroke="rgb(66, 66, 66)" stroke-width="1px" opacity="0.25"></line><line x1="0" y1="135.6473890879127" x2="288.828125" y2="135.6473890879127" fill="rgb(0, 0, 0)" stroke="rgb(66, 66, 66)" stroke-width="1px" opacity="0.25"></line><line x1="0" y1="121.77657911755554" x2="288.828125" y2="121.77657911755554" fill="rgb(0, 0, 0)" stroke="rgb(66, 66, 66)" stroke-width="1px" opacity="0.25"></line><line x1="0" y1="107.90576914719836" x2="288.828125" y2="107.90576914719836" fill="rgb(0, 0, 0)" stroke="rgb(66, 66, 66)" stroke-width="1px" opacity="0.25"></line><line x1="0" y1="94.03495917684118" x2="288.828125" y2="94.03495917684118" fill="rgb(0, 0, 0)" stroke="rgb(66, 66, 66)" stroke-width="1px" opacity="0.25"></line><line x1="0" y1="80.164149206484" x2="288.828125" y2="80.164149206484" fill="rgb(0, 0, 0)" stroke="rgb(66, 66, 66)" stroke-width="1px" opacity="0.25"></line><line x1="0" y1="66.29333923612687" x2="288.828125" y2="66.29333923612687" fill="rgb(0, 0, 0)" stroke="rgb(66, 66, 66)" stroke-width="1px" opacity="0.25"></line><line x1="0" y1="52.4225292657697" x2="288.828125" y2="52.4225292657697" fill="rgb(0, 0, 0)" stroke="rgb(66, 66, 66)" stroke-width="1px" opacity="0.25"></line><line x1="0" y1="38.55171929541251" x2="288.828125" y2="38.55171929541251" fill="rgb(0, 0, 0)" stroke="rgb(66, 66, 66)" stroke-width="1px" opacity="0.25"></line><line x1="0" y1="24.680909325055325" x2="288.828125" y2="24.680909325055325" fill="rgb(0, 0, 0)" stroke="rgb(66, 66, 66)" stroke-width="1px" opacity="0.25"></line><line x1="0" y1="10.810099354698155" x2="288.828125" y2="10.810099354698155" fill="rgb(0, 0, 0)" stroke="rgb(66, 66, 66)" stroke-width="1px" opacity="0.25"></line></g></g></g><g><g><line x1="0" y1="454.6760184061276" x2="288.828125" y2="454.6760184061276" fill="rgb(0, 0, 0)" stroke="rgb(153, 153, 153)" stroke-width="1.5px"></line></g></g><g><g><line x1="0.026778908068230602" y1="0" x2="0.026778908068230602" y2="177" fill="rgb(0, 0, 0)" stroke="rgb(153, 153, 153)" stroke-width="1.5px"></line></g></g><g><g><g><g><g><path stroke="rgb(0, 119, 187)" stroke-width="2px" d="M7.021410375996757,8.241268673304006L14.016041843925287,47.45787518111037L21.01067331185381,67.1138572308025L28.00530477978234,79.25537953200396L34.99993624771086,88.06745143424966L41.99456771563939,95.02194465319211L48.98919918356791,100.71679735956053L55.98383065149644,105.4981488943944L62.97846211942496,109.65702061085632L69.97309358735349,113.28108883164195L76.96772505528202,116.56916128680857L83.96235652321054,119.43394027741168L90.95698799113907,122.07667773205227L97.95161945906759,124.49705129897967L104.94625092699613,126.69008799716322L111.94088239492466,128.75755801495814L118.93551386285317,130.5982930083243L125.9301453307817,132.4082588192951L132.9247767987102,134.0133212202696L139.91940826663875,135.51598404778412L146.91403973456727,136.9737621699206L153.9086712024958,138.26534656717422L160.90330267042432,139.5310253708176L167.89793413835284,140.71146029440862L174.89256560628138,141.85080952900898L181.88719707420992,142.92274316802298L188.88182854213846,143.90105550563538L195.87646001006698,144.83494427566623L202.8710914779955,146.65634413311594L209.865722945924,147.52709313129L216.86035441385255,148.2174747687431L223.8549858817811,148.79168931422942L230.84961734970963,149.84987967584573L237.84424881763815,150.85795033730034L244.83888028556666,151.9481566423449L251.83351175349517,152.3232334606996L258.8281432214237,152.73233880506007L265.8227746893523,153.23535789443105L272.8174061572808,153.3629854523261L279.8120376252093,153.63049425485585" style="fill: none;" fill="none"></path></g><g><path stroke="rgb(255, 112, 67)" stroke-width="2px" d="M7.021410375996757,23.17366436213662L14.016041843925287,75.82543777504948L21.01067331185381,100.34844887263318L28.00530477978234,114.55620728035959L34.99993624771086,124.73027881227317L41.99456771563939,132.89964941567385L48.98919918356791,139.88661814324604L55.98383065149644,146.09382931646087L62.97846211942496,154.29323782954813L69.97309358735349,162.88288845379844L76.96772505528202,166.49102142044225L83.96235652321054,169.1122854720419L90.95698799113907,170.2851758718541L97.95161945906759,170.82448199288785L104.94625092699613,170.97993600321885L111.94088239492466,171.03956119105212L118.93551386285317,171.05311340979094L125.9301453307817,171.03036017298277L132.9247767987102,171.03876995629807L139.91940826663875,171.0548200980697L146.91403973456727,171.03925155587712L153.9086712024958,171.05995782152718L160.90330267042432,171.04280120820505L167.89793413835284,171.0487347738867L174.89256560628138,171.0373036646431L181.88719707420992,171.04482174072672L188.88182854213846,171.05896713649182L195.87646001006698,171.04740477732093L202.8710914779955,171.05026661785087L209.865722945924,171.05430300658767L216.86035441385255,171.07506489945956L223.8549858817811,171.05850911944435L230.84961734970963,171.04048360036242L237.84424881763815,171.03138898379112L244.83888028556666,171.04738520674067L251.83351175349517,171.05341959489198L258.8281432214237,171.04536184669914L265.8227746893523,171.04687762716034L272.8174061572808,171.06122640865254L279.8120376252093,171.04676756218913" style="fill: none;" fill="none"></path></g><g><path stroke="rgb(204, 51, 17)" stroke-width="2px" d="M7.021410375996757,22.00623953369411L14.016041843925287,73.65386963699216L21.01067331185381,95.55356784926393L28.00530477978234,107.67788779172952L34.99993624771086,115.77447482885434L41.99456771563939,121.90178940868368L48.98919918356791,126.6531339549029L55.98383065149644,130.41493545154256L62.97846211942496,133.58287508213635L69.97309358735349,136.13306474917505L76.96772505528202,139.69674644329987L83.96235652321054,141.85413553034405L90.95698799113907,143.4325976251663L97.95161945906759,146.22612340270908L104.94625092699613,149.18755689060455L111.94088239492466,152.52758661094134L118.93551386285317,155.41833627149896L125.9301453307817,156.72517511981678L132.9247767987102,157.93386427008647L139.91940826663875,159.33736271405624L146.91403973456727,160.2622196620843L153.9086712024958,160.79109822256117L160.90330267042432,160.95625411089117L167.89793413835284,161.23183145820377L174.89256560628138,161.50333107856213L181.88719707420992,161.70605609956758L188.88182854213846,161.84767451036765L195.87646001006698,161.89713589712284L202.8710914779955,161.93401830266973L209.865722945924,161.93821252322147L216.86035441385255,162.01173117308295L223.8549858817811,162.0167019557301L230.84961734970963,162.03827161269467L237.84424881763815,162.05423885595715L244.83888028556666,162.08536100128657L251.83351175349517,162.04111944080333L258.8281432214237,162.06818509868782L265.8227746893523,162.06952254213138L272.8174061572808,162.01742129266464L279.8120376252093,162.0560528462842" style="fill: none;" fill="none"></path></g></g></g></g><g opacity="0.2"><g><g><g><path stroke="rgb(0, 119, 187)" stroke-width="2px" d="M7.021410375996757,8.241268673304006L14.016041843925287,51.379535831891L21.01067331185381,69.27601525626864L28.00530477978234,80.6030885074373L34.99993624771086,89.0464726225891L41.99456771563939,95.79465839474884L48.98919918356791,101.34955813861782L55.98383065149644,106.02941012291657L62.97846211942496,110.11911746362003L69.97309358735349,113.68376307799329L76.96772505528202,116.93450267067948L83.96235652321054,119.75224905414215L90.95698799113907,122.37031522701207L97.95161945906759,124.76598169530489L104.94625092699613,126.9337587414058L111.94088239492466,128.9872769058243L118.93551386285317,130.80281911869832L125.9301453307817,132.60936613162517L132.9247767987102,134.19166148704457L139.91940826663875,135.6829465841746L146.91403973456727,137.13573751682466L153.9086712024958,138.4088559446469L160.90330267042432,139.67165634900022L167.89793413835284,140.84261973036317L174.89256560628138,141.97740388840901L181.88719707420992,143.04184690569122L188.88182854213846,144.00975687648116L195.87646001006698,144.93870969455858L202.8710914779955,146.85872189505474L209.865722945924,147.62384301997605L216.86035441385255,148.29418383957125L223.8549858817811,148.85549093039458L230.84961734970963,149.967456382692L237.84424881763815,150.96995818857303L244.83888028556666,152.06929067623872L251.83351175349517,152.36490866273905L258.8281432214237,152.7777949544335L265.8227746893523,153.2912489043612L272.8174061572808,153.37716629209223L279.8120376252093,153.66021745513692" style="fill: none;" fill="none"></path></g><g><path stroke="rgb(255, 112, 67)" stroke-width="2px" d="M7.021410375996757,23.17366436213662L14.016041843925287,81.09061511634073L21.01067331185381,103.04598009336743L28.00530477978234,116.1332684636172L34.99993624771086,125.86061815946871L41.99456771563939,133.80734818341776L48.98919918356791,140.6629472255353L55.98383065149644,146.78351937784907L62.97846211942496,155.2042832107807L69.97309358735349,163.83729407776076L76.96772505528202,166.8919250833626L83.96235652321054,169.40353703332786L90.95698799113907,170.4154970273887L97.95161945906759,170.88440489522492L104.94625092699613,170.99720867103346L111.94088239492466,171.0461862119225L118.93551386285317,171.054619211873L125.9301453307817,171.02783203555964L132.9247767987102,171.03970437666644L139.91940826663875,171.05660344715548L146.91403973456727,171.0375217178557L153.9086712024958,171.06225851771052L160.90330267042432,171.0408949178359L167.89793413835284,171.0493940589625L174.89256560628138,171.03603354139386L181.88719707420992,171.04565708251383L188.88182854213846,171.0605388471324L195.87646001006698,171.0461200707464L202.8710914779955,171.05058460013197L209.865722945924,171.05475149422517L216.86035441385255,171.07737177644535L223.8549858817811,171.05666958833154L230.84961734970963,171.03848076490888L237.84424881763815,171.0303784708388L244.83888028556666,171.0491625648462L251.83351175349517,171.05409008246434L258.8281432214237,171.04446654134435L265.8227746893523,171.04704604721158L272.8174061572808,171.0628207177072L279.8120376252093,171.04516102369323" style="fill: none;" fill="none"></path></g><g><path stroke="rgb(204, 51, 17)" stroke-width="2px" d="M7.021410375996757,22.00623953369411L14.016041843925287,78.81863264732202L21.01067331185381,97.96253465261384L28.00530477978234,109.02368730534322L34.99993624771086,116.6740056486789L41.99456771563939,122.58259533164856L48.98919918356791,127.1810605987779L55.98383065149644,130.83291335381583L62.97846211942496,133.93486837090464L69.97309358735349,136.41641915634045L76.96772505528202,140.09271107594083L83.96235652321054,142.09384542890209L90.95698799113907,143.60798230236858L97.95161945906759,146.5365151557693L104.94625092699613,149.51660505592628L111.94088239492466,152.89870102431212L118.93551386285317,155.73953067822757L125.9301453307817,156.87037943629653L132.9247767987102,158.06816306456088L139.91940826663875,159.49330698560848L146.91403973456727,160.36498154519853L153.9086712024958,160.84986250705865L160.90330267042432,160.97460476515008L167.89793413835284,161.2624511634607L174.89256560628138,161.5334977030464L181.88719707420992,161.72858110190148L188.88182854213846,161.86340988934546L195.87646001006698,161.90263160676233L202.8710914779955,161.93811634773053L209.865722945924,161.93867854772722L216.86035441385255,162.01989991195643L223.8549858817811,162.01725426491313L230.84961734970963,162.0406682412463L237.84424881763815,162.05601299409742L244.83888028556666,162.0888190174343L251.83351175349517,162.03620371186076L258.8281432214237,162.07119239400834L265.8227746893523,162.06967114695846L272.8174061572808,162.01163226494612L279.8120376252093,162.06034524113082" style="fill: none;" fill="none"></path></g></g></g></g></g></g><g transform="translate(41, 177)" clip-path="url(#clip_1)"><clipPath id="clip_1"><rect width="288" height="23"></rect></clipPath><g><g><line x1="0.026778908068230602" y1="0" x2="0.026778908068230602" y2="5" style="visibility: inherit;" fill="rgb(0, 0, 0)" stroke="rgb(204, 204, 204)" stroke-width="1px"></line><line x1="34.99993624771086" y1="0" x2="34.99993624771086" y2="5" style="visibility: inherit;" fill="rgb(0, 0, 0)" stroke="rgb(204, 204, 204)" stroke-width="1px"></line><line x1="69.97309358735349" y1="0" x2="69.97309358735349" y2="5" style="visibility: inherit;" fill="rgb(0, 0, 0)" stroke="rgb(204, 204, 204)" stroke-width="1px"></line><line x1="104.94625092699613" y1="0" x2="104.94625092699613" y2="5" style="visibility: inherit;" fill="rgb(0, 0, 0)" stroke="rgb(204, 204, 204)" stroke-width="1px"></line><line x1="139.91940826663875" y1="0" x2="139.91940826663875" y2="5" style="visibility: inherit;" fill="rgb(0, 0, 0)" stroke="rgb(204, 204, 204)" stroke-width="1px"></line><line x1="174.89256560628138" y1="0" x2="174.89256560628138" y2="5" style="visibility: inherit;" fill="rgb(0, 0, 0)" stroke="rgb(204, 204, 204)" stroke-width="1px"></line><line x1="209.865722945924" y1="0" x2="209.865722945924" y2="5" style="visibility: inherit;" fill="rgb(0, 0, 0)" stroke="rgb(204, 204, 204)" stroke-width="1px"></line><line x1="244.83888028556666" y1="0" x2="244.83888028556666" y2="5" style="visibility: inherit;" fill="rgb(0, 0, 0)" stroke="rgb(204, 204, 204)" stroke-width="1px"></line><line x1="279.8120376252093" y1="0" x2="279.8120376252093" y2="5" style="visibility: inherit;" fill="rgb(0, 0, 0)" stroke="rgb(204, 204, 204)" stroke-width="1px"></line></g><g transform="translate(0, 8)"><text x="0.026778908068230602" y="0" dx="0em" dy="0.95em" style="text-anchor: middle; visibility: hidden; font-family: Roboto, sans-serif; font-size: 12px; font-weight: 200;" fill="rgb(33, 33, 33)" stroke="none" stroke-width="1px">0</text><text x="34.99993624771086" y="0" dx="0em" dy="0.95em" style="text-anchor: middle; visibility: inherit; font-family: Roboto, sans-serif; font-size: 12px; font-weight: 200;" fill="rgb(33, 33, 33)" stroke="none" stroke-width="1px">5</text><text x="69.97309358735349" y="0" dx="0em" dy="0.95em" style="text-anchor: middle; visibility: inherit; font-family: Roboto, sans-serif; font-size: 12px; font-weight: 200;" fill="rgb(33, 33, 33)" stroke="none" stroke-width="1px">10</text><text x="104.94625092699613" y="0" dx="0em" dy="0.95em" style="text-anchor: middle; visibility: inherit; font-family: Roboto, sans-serif; font-size: 12px; font-weight: 200;" fill="rgb(33, 33, 33)" stroke="none" stroke-width="1px">15</text><text x="139.91940826663875" y="0" dx="0em" dy="0.95em" style="text-anchor: middle; visibility: inherit; font-family: Roboto, sans-serif; font-size: 12px; font-weight: 200;" fill="rgb(33, 33, 33)" stroke="none" stroke-width="1px">20</text><text x="174.89256560628138" y="0" dx="0em" dy="0.95em" style="text-anchor: middle; visibility: inherit; font-family: Roboto, sans-serif; font-size: 12px; font-weight: 200;" fill="rgb(33, 33, 33)" stroke="none" stroke-width="1px">25</text><text x="209.865722945924" y="0" dx="0em" dy="0.95em" style="text-anchor: middle; visibility: inherit; font-family: Roboto, sans-serif; font-size: 12px; font-weight: 200;" fill="rgb(33, 33, 33)" stroke="none" stroke-width="1px">30</text><text x="244.83888028556666" y="0" dx="0em" dy="0.95em" style="text-anchor: middle; visibility: inherit; font-family: Roboto, sans-serif; font-size: 12px; font-weight: 200;" fill="rgb(33, 33, 33)" stroke="none" stroke-width="1px">35</text><text x="279.8120376252093" y="0" dx="0em" dy="0.95em" style="text-anchor: middle; visibility: inherit; font-family: Roboto, sans-serif; font-size: 12px; font-weight: 200;" fill="rgb(33, 33, 33)" stroke="none" stroke-width="1px">40</text></g><line x1="0" y1="0" x2="288.828125" y2="0" fill="rgb(0, 0, 0)" stroke="rgb(204, 204, 204)" stroke-width="1px"></line></g></g></g></g></svg>