<svg viewBox="0 0 330 200" xmlns="http://www.w3.org/2000/svg"><g><g><g><g><g><line x1="41.171875" y1="163.98006252085344" x2="36.171875" y2="163.98006252085344" style="visibility: inherit;" fill="rgb(0, 0, 0)" stroke="rgb(204, 204, 204)" stroke-width="1px"></line><line x1="41.171875" y1="150.39756806852276" x2="36.171875" y2="150.39756806852276" style="visibility: inherit;" fill="rgb(0, 0, 0)" stroke="rgb(204, 204, 204)" stroke-width="1px"></line><line x1="41.171875" y1="136.81507361619208" x2="36.171875" y2="136.81507361619208" style="visibility: inherit;" fill="rgb(0, 0, 0)" stroke="rgb(204, 204, 204)" stroke-width="1px"></line><line x1="41.171875" y1="123.2325791638614" x2="36.171875" y2="123.2325791638614" style="visibility: inherit;" fill="rgb(0, 0, 0)" stroke="rgb(204, 204, 204)" stroke-width="1px"></line><line x1="41.171875" y1="109.65008471153074" x2="36.171875" y2="109.65008471153074" style="visibility: inherit;" fill="rgb(0, 0, 0)" stroke="rgb(204, 204, 204)" stroke-width="1px"></line><line x1="41.171875" y1="96.06759025920005" x2="36.171875" y2="96.06759025920005" style="visibility: inherit;" fill="rgb(0, 0, 0)" stroke="rgb(204, 204, 204)" stroke-width="1px"></line><line x1="41.171875" y1="82.48509580686938" x2="36.171875" y2="82.48509580686938" style="visibility: inherit;" fill="rgb(0, 0, 0)" stroke="rgb(204, 204, 204)" stroke-width="1px"></line><line x1="41.171875" y1="68.9026013545387" x2="36.171875" y2="68.9026013545387" style="visibility: inherit;" fill="rgb(0, 0, 0)" stroke="rgb(204, 204, 204)" stroke-width="1px"></line><line x1="41.171875" y1="55.32010690220804" x2="36.171875" y2="55.32010690220804" style="visibility: inherit;" fill="rgb(0, 0, 0)" stroke="rgb(204, 204, 204)" stroke-width="1px"></line><line x1="41.171875" y1="41.73761244987735" x2="36.171875" y2="41.73761244987735" style="visibility: inherit;" fill="rgb(0, 0, 0)" stroke="rgb(204, 204, 204)" stroke-width="1px"></line><line x1="41.171875" y1="28.155117997546686" x2="36.171875" y2="28.155117997546686" style="visibility: inherit;" fill="rgb(0, 0, 0)" stroke="rgb(204, 204, 204)" stroke-width="1px"></line><line x1="41.171875" y1="14.572623545216004" x2="36.171875" y2="14.572623545216004" style="visibility: inherit;" fill="rgb(0, 0, 0)" stroke="rgb(204, 204, 204)" stroke-width="1px"></line><line x1="41.171875" y1="0.990129092885339" x2="36.171875" y2="0.990129092885339" style="visibility: inherit;" fill="rgb(0, 0, 0)" stroke="rgb(204, 204, 204)" stroke-width="1px"></line></g><g transform="translate(31.171875, 0)"><text x="0" y="163.98006252085344" dx="0em" dy="0.3em" style="text-anchor: end; visibility: inherit; font-family: Roboto, sans-serif; font-size: 12px; font-weight: 200;" fill="rgb(33, 33, 33)" stroke="none" stroke-width="1px">50</text><text x="0" y="150.39756806852276" dx="0em" dy="0.3em" style="text-anchor: end; visibility: hidden; font-family: Roboto, sans-serif; font-size: 12px; font-weight: 200;" fill="rgb(33, 33, 33)" stroke="none" stroke-width="1px">100</text><text x="0" y="136.81507361619208" dx="0em" dy="0.3em" style="text-anchor: end; visibility: inherit; font-family: Roboto, sans-serif; font-size: 12px; font-weight: 200;" fill="rgb(33, 33, 33)" stroke="none" stroke-width="1px">150</text><text x="0" y="123.2325791638614" dx="0em" dy="0.3em" style="text-anchor: end; visibility: hidden; font-family: Roboto, sans-serif; font-size: 12px; font-weight: 200;" fill="rgb(33, 33, 33)" stroke="none" stroke-width="1px">200</text><text x="0" y="109.65008471153074" dx="0em" dy="0.3em" style="text-anchor: end; visibility: inherit; font-family: Roboto, sans-serif; font-size: 12px; font-weight: 200;" fill="rgb(33, 33, 33)" stroke="none" stroke-width="1px">250</text><text x="0" y="96.06759025920005" dx="0em" dy="0.3em" style="text-anchor: end; visibility: hidden; font-family: Roboto, sans-serif; font-size: 12px; font-weight: 200;" fill="rgb(33, 33, 33)" stroke="none" stroke-width="1px">300</text><text x="0" y="82.48509580686938" dx="0em" dy="0.3em" style="text-anchor: end; visibility: inherit; font-family: Roboto, sans-serif; font-size: 12px; font-weight: 200;" fill="rgb(33, 33, 33)" stroke="none" stroke-width="1px">350</text><text x="0" y="68.9026013545387" dx="0em" dy="0.3em" style="text-anchor: end; visibility: hidden; font-family: Roboto, sans-serif; font-size: 12px; font-weight: 200;" fill="rgb(33, 33, 33)" stroke="none" stroke-width="1px">400</text><text x="0" y="55.32010690220804" dx="0em" dy="0.3em" style="text-anchor: end; visibility: inherit; font-family: Roboto, sans-serif; font-size: 12px; font-weight: 200;" fill="rgb(33, 33, 33)" stroke="none" stroke-width="1px">450</text><text x="0" y="41.73761244987735" dx="0em" dy="0.3em" style="text-anchor: end; visibility: hidden; font-family: Roboto, sans-serif; font-size: 12px; font-weight: 200;" fill="rgb(33, 33, 33)" stroke="none" stroke-width="1px">500</text><text x="0" y="28.155117997546686" dx="0em" dy="0.3em" style="text-anchor: end; visibility: inherit; font-family: Roboto, sans-serif; font-size: 12px; font-weight: 200;" fill="rgb(33, 33, 33)" stroke="none" stroke-width="1px">550</text><text x="0" y="14.572623545216004" dx="0em" dy="0.3em" style="text-anchor: end; visibility: hidden; font-family: Roboto, sans-serif; font-size: 12px; font-weight: 200;" fill="rgb(33, 33, 33)" stroke="none" stroke-width="1px">600</text><text x="0" y="0.990129092885339" dx="0em" dy="0.3em" style="text-anchor: end; visibility: hidden; font-family: Roboto, sans-serif; font-size: 12px; font-weight: 200;" fill="rgb(33, 33, 33)" stroke="none" stroke-width="1px">650</text></g><line x1="41.171875" y1="0" x2="41.171875" y2="177" fill="rgb(0, 0, 0)" stroke="rgb(204, 204, 204)" stroke-width="1px"></line></g></g><g transform="translate(41, 0)" clip-path="url(#clip_0)"><clipPath id="clip_0"><rect width="288" height="177"></rect></clipPath><g><g><g><line x1="34.69420173698422" y1="0" x2="34.69420173698422" y2="177" fill="rgb(0, 0, 0)" stroke="rgb(66, 66, 66)" stroke-width="1px" opacity="0.25"></line><line x1="69.50813878747478" y1="0" x2="69.50813878747478" y2="177" fill="rgb(0, 0, 0)" stroke="rgb(66, 66, 66)" stroke-width="1px" opacity="0.25"></line><line x1="104.32207583796534" y1="0" x2="104.32207583796534" y2="177" fill="rgb(0, 0, 0)" stroke="rgb(66, 66, 66)" stroke-width="1px" opacity="0.25"></line><line x1="139.1360128884559" y1="0" x2="139.1360128884559" y2="177" fill="rgb(0, 0, 0)" stroke="rgb(66, 66, 66)" stroke-width="1px" opacity="0.25"></line><line x1="173.94994993894647" y1="0" x2="173.94994993894647" y2="177" fill="rgb(0, 0, 0)" stroke="rgb(66, 66, 66)" stroke-width="1px" opacity="0.25"></line><line x1="208.76388698943703" y1="0" x2="208.76388698943703" y2="177" fill="rgb(0, 0, 0)" stroke="rgb(66, 66, 66)" stroke-width="1px" opacity="0.25"></line><line x1="243.5778240399276" y1="0" x2="243.5778240399276" y2="177" fill="rgb(0, 0, 0)" stroke="rgb(66, 66, 66)" stroke-width="1px" opacity="0.25"></line><line x1="278.3917610904182" y1="0" x2="278.3917610904182" y2="177" fill="rgb(0, 0, 0)" stroke="rgb(66, 66, 66)" stroke-width="1px" opacity="0.25"></line></g><g><line x1="0" y1="163.98006252085344" x2="288.828125" y2="163.98006252085344" fill="rgb(0, 0, 0)" stroke="rgb(66, 66, 66)" stroke-width="1px" opacity="0.25"></line><line x1="0" y1="150.39756806852276" x2="288.828125" y2="150.39756806852276" fill="rgb(0, 0, 0)" stroke="rgb(66, 66, 66)" stroke-width="1px" opacity="0.25"></line><line x1="0" y1="136.81507361619208" x2="288.828125" y2="136.81507361619208" fill="rgb(0, 0, 0)" stroke="rgb(66, 66, 66)" stroke-width="1px" opacity="0.25"></line><line x1="0" y1="123.2325791638614" x2="288.828125" y2="123.2325791638614" fill="rgb(0, 0, 0)" stroke="rgb(66, 66, 66)" stroke-width="1px" opacity="0.25"></line><line x1="0" y1="109.65008471153074" x2="288.828125" y2="109.65008471153074" fill="rgb(0, 0, 0)" stroke="rgb(66, 66, 66)" stroke-width="1px" opacity="0.25"></line><line x1="0" y1="96.06759025920005" x2="288.828125" y2="96.06759025920005" fill="rgb(0, 0, 0)" stroke="rgb(66, 66, 66)" stroke-width="1px" opacity="0.25"></line><line x1="0" y1="82.48509580686938" x2="288.828125" y2="82.48509580686938" fill="rgb(0, 0, 0)" stroke="rgb(66, 66, 66)" stroke-width="1px" opacity="0.25"></line><line x1="0" y1="68.9026013545387" x2="288.828125" y2="68.9026013545387" fill="rgb(0, 0, 0)" stroke="rgb(66, 66, 66)" stroke-width="1px" opacity="0.25"></line><line x1="0" y1="55.32010690220804" x2="288.828125" y2="55.32010690220804" fill="rgb(0, 0, 0)" stroke="rgb(66, 66, 66)" stroke-width="1px" opacity="0.25"></line><line x1="0" y1="41.73761244987735" x2="288.828125" y2="41.73761244987735" fill="rgb(0, 0, 0)" stroke="rgb(66, 66, 66)" stroke-width="1px" opacity="0.25"></line><line x1="0" y1="28.155117997546686" x2="288.828125" y2="28.155117997546686" fill="rgb(0, 0, 0)" stroke="rgb(66, 66, 66)" stroke-width="1px" opacity="0.25"></line><line x1="0" y1="14.572623545216004" x2="288.828125" y2="14.572623545216004" fill="rgb(0, 0, 0)" stroke="rgb(66, 66, 66)" stroke-width="1px" opacity="0.25"></line><line x1="0" y1="0.990129092885339" x2="288.828125" y2="0.990129092885339" fill="rgb(0, 0, 0)" stroke="rgb(66, 66, 66)" stroke-width="1px" opacity="0.25"></line></g></g></g><g><g><line x1="0" y1="177.5625569731841" x2="288.828125" y2="177.5625569731841" fill="rgb(0, 0, 0)" stroke="rgb(153, 153, 153)" stroke-width="1.5px"></line></g></g><g><g><line x1="-0.11973531350634936" y1="0" x2="-0.11973531350634936" y2="177" fill="rgb(0, 0, 0)" stroke="rgb(153, 153, 153)" stroke-width="1.5px"></line></g></g><g><g><g><g><g><path stroke="rgb(0, 119, 187)" stroke-width="2px" d="M6.843052096591763,7.89219833189171L13.805839506689876,79.32680861889872L20.76862691678799,104.42818401143889L27.731414326886103,116.45846667964085L34.69420173698422,123.82579383137515L41.65698914708233,128.97770550312464L48.619776557180444,132.81832451018963L55.58256396727855,135.804604305974L62.54535137737666,138.23765900268018L69.50813878747478,140.2419339639522L76.4709261975729,141.97095912839853L83.433713607671,143.41219421409704L90.39650101776911,144.6895225445455L97.35928842786723,145.81739730791867L104.32207583796534,146.8060268697621L111.28486324806346,147.70957365907583L118.24765065816158,148.492117631284L125.21043806825968,149.24080292669987L132.17322547835778,149.8890503994859L139.1360128884559,150.48260881043058L146.098800298554,151.04574657485603L153.06158770865213,151.5351783192693L160.02437511875024,152.00610751981702L166.98716252884836,152.43749678479324L173.94994993894647,152.84705715693514L180.91273734904456,153.22623173078065L187.87552475914268,153.56715325923727L194.8383121692408,153.88788358873174L201.8010995793389,154.49546943581922L208.76388698943703,154.7836251660755L215.72667439953514,155.0108105255177L222.68946180963326,155.19828665076125L229.6522492197314,155.53980461919963L236.6150366298295,155.85875730000856L243.5778240399276,156.19514885656963L250.54061145002572,156.3099739655848L257.50339886012387,156.4348538078708L264.46618627022195,156.58539988142442L271.4289736803201,156.62387670627155L278.3917610904182,156.7053383466947" style="fill: none;" fill="none"></path></g><g><path stroke="rgb(255, 112, 67)" stroke-width="2px" d="M6.843052096591763,40.646486500886354L13.805839506689876,111.15714290002782L20.76862691678799,132.02359503611018L27.731414326886103,140.78356113384493L34.69420173698422,145.8760263187823L41.65698914708233,149.4173907092441L48.619776557180444,152.12217292439425L55.58256396727855,154.30368709999686L62.54535137737666,156.8684063306857L69.50813878747478,159.28974250057104L76.4709261975729,160.2325421381175L83.433713607671,160.869602194519L90.39650101776911,161.15042956357956L97.35928842786723,161.27681585278725L104.32207583796534,161.3128058188729L111.28486324806346,161.3265518938565L118.24765065816158,161.32968545262466L125.21043806825968,161.32437314887295L132.17322547835778,161.32634604583575L139.1360128884559,161.3301740870131L146.098800298554,161.32657640119473L153.06158770865213,161.3311558722337L160.02437511875024,161.32725747714184L166.98716252884836,161.32878886754557L173.94994993894647,161.32603218264015L180.91273734904456,161.3277448938459L187.87552475914268,161.33105448470286L194.8383121692408,161.32829095793855L201.8010995793389,161.3290349089149L208.76388698943703,161.32986473907536L215.72667439953514,161.33471535671026L222.68946180963326,161.33108935951446L229.6522492197314,161.3267509330382L236.6150366298295,161.32452083368557L243.5778240399276,161.328390229992L250.54061145002572,161.32964638626288L257.50339886012387,161.32790673012983L264.46618627022195,161.32832592093624L271.4289736803201,161.3316413919559L278.3917610904182,161.32825172189644" style="fill: none;" fill="none"></path></g><g><path stroke="rgb(204, 51, 17)" stroke-width="2px" d="M6.843052096591763,38.44100575191837L13.805839506689876,109.16578781266962L20.76862691678799,128.86379868389983L27.731414326886103,136.98866304789763L34.69420173698422,141.52940386374533L41.65698914708233,144.59485523824299L48.619776557180444,146.78523806976781L55.58256396727855,148.41388999836477L62.54535137737666,149.71715248602808L69.50813878747478,150.72374050524394L76.4709261975729,152.0441452775403L83.433713607671,152.82231402719L90.39650101776911,153.38033205989385L97.35928842786723,154.32406290967583L104.32207583796534,155.2886990523256L111.28486324806346,156.34233806192478L118.24765065816158,157.23488395108893L125.21043806825968,157.61865002875362L132.17322547835778,157.96220561446447L139.1360128884559,158.3526713963899L146.098800298554,158.60596308894938L153.06158770865213,158.7495840626884L160.02437511875024,158.79375320278893L166.98716252884836,158.8668438271912L173.94994993894647,158.93872673269487L180.91273734904456,158.99228940974527L187.87552475914268,159.02985705547576L194.8383121692408,159.04272567259696L201.8010995793389,159.05202014597526L208.76388698943703,159.05315290793496L215.72667439953514,159.07242252510733L222.68946180963326,159.07365187518627L229.6522492197314,159.07885954101224L236.6150366298295,159.08353799834813L243.5778240399276,159.09213096786877L250.54061145002572,159.08041833315767L257.50339886012387,159.0875978913566L264.46618627022195,159.08792600537862L271.4289736803201,159.07391705097066L278.3917610904182,159.08421327473758" style="fill: none;" fill="none"></path></g></g></g></g><g opacity="0.2"><g><g><g><path stroke="rgb(0, 119, 187)" stroke-width="2px" d="M6.843052096591763,7.89219833189171L13.805839506689876,86.47026964759944L20.76862691678799,107.1893353046183L27.731414326886103,117.79382805581125L34.69420173698422,124.64430387793283L41.65698914708233,129.5501344089727L48.619776557180444,133.2450595286836L55.58256396727855,136.1364131389914L62.54535137737666,138.5079984107219L69.50813878747478,140.4646311816486L76.4709261975729,142.16307303554004L83.433713607671,143.57233144583972L90.39650101776911,144.83144791459517L97.35928842786723,145.94271672607124L104.32207583796534,146.91587459885577L111.28486324806346,147.80996774677737L118.24765065816158,148.57906696152935L125.21043806825968,149.32399018174607L132.17322547835778,149.96107789646214L139.1360128884559,150.54855974498L146.098800298554,151.10831743756998L153.06158770865213,151.58955962420413L160.02437511875024,152.05843298654455L166.98716252884836,152.48542892534616L173.94994993894647,152.89256386495092L180.91273734904456,153.2683622389857L187.87552475914268,153.60503342906577L194.8383121692408,153.9235202920089L201.8010995793389,154.5629789743845L208.76388698943703,154.8156424694373L215.72667439953514,155.0360533432335L222.68946180963326,155.21911733134385L229.6522492197314,155.57775106013722L236.6150366298295,155.8941964867651L243.5778240399276,156.23252569618754L250.54061145002572,156.32273231103093L257.50339886012387,156.4487293459026L264.46618627022195,156.60212722293036L271.4289736803201,156.62815190903234L278.3917610904182,156.71438964007507" style="fill: none;" fill="none"></path></g><g><path stroke="rgb(255, 112, 67)" stroke-width="2px" d="M6.843052096591763,40.646486500886354L13.805839506689876,118.20820853994196L20.76862691678799,134.31890477107922L27.731414326886103,141.75591737069348L34.69420173698422,146.44179920082883L41.65698914708233,149.81087170666834L48.619776557180444,152.42270398110182L55.58256396727855,154.54607753971365L62.54535137737666,157.15337513124587L69.50813878747478,159.55877985251146L76.4709261975729,160.33729765338998L83.433713607671,160.94038664522955L90.39650101776911,161.18163260458627L97.35928842786723,161.29085877381033L104.32207583796534,161.31680470399354L111.28486324806346,161.32807923552133L118.24765065816158,161.3300336258211L125.21043806825968,161.32378289290054L132.17322547835778,161.3265652566094L139.1360128884559,161.33059942492167L146.098800298554,161.32617665832603L153.06158770865213,161.33166470234914L160.02437511875024,161.3268243221316L166.98716252884836,161.32895902203487L173.94994993894647,161.32572588431734L180.91273734904456,161.327935195091L187.87552475914268,161.33142221702033L194.8383121692408,161.32798389940916L201.8010995793389,161.32911757013449L208.76388698943703,161.32995694242655L215.72667439953514,161.33525431422527L222.68946180963326,161.33068647093717L229.6522492197314,161.32626888565196L236.6150366298295,161.32427304486862L243.5778240399276,161.32882016291495L250.54061145002572,161.32978595918186L257.50339886012387,161.32771343500394L264.46618627022195,161.32837249769253L271.4289736803201,161.33200977762476L278.3917610904182,161.32787509188984" style="fill: none;" fill="none"></path></g><g><path stroke="rgb(204, 51, 17)" stroke-width="2px" d="M6.843052096591763,38.44100575191837L13.805839506689876,116.23826601874474L20.76862691678799,131.03057987973514L27.731414326886103,137.89052299230138L34.69420173698422,142.03388016838602L41.65698914708233,144.93545754046343L48.619776557180444,147.0286136965614L55.58256396727855,148.5948513056683L62.54535137737666,149.86195942765374L69.50813878747478,150.8355836183783L76.4709261975729,152.1908569188919L83.433713607671,152.90877722159468L90.39650101776911,153.44233406352754L97.35928842786723,154.42892189298493L104.32207583796534,155.39588084595337L111.28486324806346,156.45940906299134L118.24765065816158,157.33405571655163L125.21043806825968,157.66129070404972L132.17322547835778,158.0003784573212L139.1360128884559,158.39605648327048L146.098800298554,158.63410661034487L153.06158770865213,158.76554194865938L160.02437511875024,158.79866088502234L166.98716252884836,158.87496500768034L173.94994993894647,158.9467137221953L180.91273734904456,158.9982408183064L187.87552475914268,159.0340312383347L194.8383121692408,159.04415551894377L201.8010995793389,159.05305286523952L208.76388698943703,159.05327877037493L215.72667439953514,159.07456359368203L222.68946180963326,159.07378846963948L229.6522492197314,159.07943817054846L236.6150366298295,159.084057826941L243.5778240399276,159.09308574225997L250.54061145002572,159.07911692930088L257.50339886012387,159.08839562004536L264.46618627022195,159.0879624624922L271.4289736803201,159.0723605004809L278.3917610904182,159.08535729960056" style="fill: none;" fill="none"></path></g></g></g></g></g></g><g transform="translate(41, 177)" clip-path="url(#clip_1)"><clipPath id="clip_1"><rect width="288" height="23"></rect></clipPath><g><g><line x1="34.69420173698422" y1="0" x2="34.69420173698422" y2="5" style="visibility: inherit;" fill="rgb(0, 0, 0)" stroke="rgb(204, 204, 204)" stroke-width="1px"></line><line x1="69.50813878747478" y1="0" x2="69.50813878747478" y2="5" style="visibility: inherit;" fill="rgb(0, 0, 0)" stroke="rgb(204, 204, 204)" stroke-width="1px"></line><line x1="104.32207583796534" y1="0" x2="104.32207583796534" y2="5" style="visibility: inherit;" fill="rgb(0, 0, 0)" stroke="rgb(204, 204, 204)" stroke-width="1px"></line><line x1="139.1360128884559" y1="0" x2="139.1360128884559" y2="5" style="visibility: inherit;" fill="rgb(0, 0, 0)" stroke="rgb(204, 204, 204)" stroke-width="1px"></line><line x1="173.94994993894647" y1="0" x2="173.94994993894647" y2="5" style="visibility: inherit;" fill="rgb(0, 0, 0)" stroke="rgb(204, 204, 204)" stroke-width="1px"></line><line x1="208.76388698943703" y1="0" x2="208.76388698943703" y2="5" style="visibility: inherit;" fill="rgb(0, 0, 0)" stroke="rgb(204, 204, 204)" stroke-width="1px"></line><line x1="243.5778240399276" y1="0" x2="243.5778240399276" y2="5" style="visibility: inherit;" fill="rgb(0, 0, 0)" stroke="rgb(204, 204, 204)" stroke-width="1px"></line><line x1="278.3917610904182" y1="0" x2="278.3917610904182" y2="5" style="visibility: inherit;" fill="rgb(0, 0, 0)" stroke="rgb(204, 204, 204)" stroke-width="1px"></line></g><g transform="translate(0, 8)"><text x="34.69420173698422" y="0" dx="0em" dy="0.95em" style="text-anchor: middle; visibility: inherit; font-family: Roboto, sans-serif; font-size: 12px; font-weight: 200;" fill="rgb(33, 33, 33)" stroke="none" stroke-width="1px">5</text><text x="69.50813878747478" y="0" dx="0em" dy="0.95em" style="text-anchor: middle; visibility: inherit; font-family: Roboto, sans-serif; font-size: 12px; font-weight: 200;" fill="rgb(33, 33, 33)" stroke="none" stroke-width="1px">10</text><text x="104.32207583796534" y="0" dx="0em" dy="0.95em" style="text-anchor: middle; visibility: inherit; font-family: Roboto, sans-serif; font-size: 12px; font-weight: 200;" fill="rgb(33, 33, 33)" stroke="none" stroke-width="1px">15</text><text x="139.1360128884559" y="0" dx="0em" dy="0.95em" style="text-anchor: middle; visibility: inherit; font-family: Roboto, sans-serif; font-size: 12px; font-weight: 200;" fill="rgb(33, 33, 33)" stroke="none" stroke-width="1px">20</text><text x="173.94994993894647" y="0" dx="0em" dy="0.95em" style="text-anchor: middle; visibility: inherit; font-family: Roboto, sans-serif; font-size: 12px; font-weight: 200;" fill="rgb(33, 33, 33)" stroke="none" stroke-width="1px">25</text><text x="208.76388698943703" y="0" dx="0em" dy="0.95em" style="text-anchor: middle; visibility: inherit; font-family: Roboto, sans-serif; font-size: 12px; font-weight: 200;" fill="rgb(33, 33, 33)" stroke="none" stroke-width="1px">30</text><text x="243.5778240399276" y="0" dx="0em" dy="0.95em" style="text-anchor: middle; visibility: inherit; font-family: Roboto, sans-serif; font-size: 12px; font-weight: 200;" fill="rgb(33, 33, 33)" stroke="none" stroke-width="1px">35</text><text x="278.3917610904182" y="0" dx="0em" dy="0.95em" style="text-anchor: middle; visibility: inherit; font-family: Roboto, sans-serif; font-size: 12px; font-weight: 200;" fill="rgb(33, 33, 33)" stroke="none" stroke-width="1px">40</text></g><line x1="0" y1="0" x2="288.828125" y2="0" fill="rgb(0, 0, 0)" stroke="rgb(204, 204, 204)" stroke-width="1px"></line></g></g></g></g></svg>